Coordinates											
version=1											
nRows=75											
nColumns=12											
inDegrees=yes											
											
"Units are S.I. units (second, meters, Newtons, ...)"											
"If the header above contains a line with 'inDegrees', this indicates whether rotational values are in degrees (yes) or radians (no)."											
											
endheader											
time	clav_prot	clav_elev	scapula_abduction	scapula_elevation	scapula_upward_rot	scapula_winging	plane_elv	shoulder_elv	axial_rot	elbow_flexion	pro_sup
0	-17.56109926	-6.21985767	-5.29494798	-4.27701323	9.46556852	6.29241748	-18.81495345	17.94477725	41.36498876	0	34.32
0.01	-17.47945427	-6.38591956	-5.1938627	-4.36256979	9.32431832	6.3664854	-18.9025876	18.111744	40.90397474	0	34.32
0.02	-17.53399133	-6.16727779	-5.21632378	-4.25636838	9.54370534	6.2501268	-19.21569681	17.96513439	42.20823697	0	34.32
0.03	-17.52788118	-6.22905721	-5.2445054	-4.27755687	9.44788948	6.29312432	-18.9336337	18.20665866	39.83477147	0	34.32
0.04	-17.50981778	-6.03445267	-5.13231137	-4.18757612	9.67233076	6.16939055	-19.45057953	17.72520949	44.75964941	0	34.32
0.05	-17.73234001	-6.21597718	-5.60242087	-4.279334	9.45205831	6.32852922	-17.71670658	18.67930137	34.87362324	0	34.32
0.06	-17.49246624	-6.3262074	-5.20910187	-4.32713329	9.36127035	6.34000926	-18.37077792	18.65772899	35.42905978	0	34.32
0.07	-17.53551765	-6.38426592	-5.23470106	-4.39370131	9.43127903	6.3515514	-18.7787541	18.56758387	36.04011356	0	34.32
0.08	-17.52198248	-6.16624941	-5.14847346	-4.27887862	9.63080485	6.22622898	-19.42924717	17.73891272	44.84327877	0	34.32
0.09	-17.40110133	-6.22477463	-4.92024928	-4.32011736	9.63907346	6.21905036	-19.20383915	17.98809716	41.82475409	0	34.32
0.1	-17.40308386	-6.21153925	-4.93174775	-4.30740974	9.62963728	6.21749379	-19.19981072	17.99878513	41.83025666	0	34.32
0.11	-17.29189667	-6.48834855	-4.9417188	-4.38248219	9.14417026	6.40629082	-17.83544876	19.19683984	31.96569757	0	34.32
0.12	-17.55645201	-6.13654767	-5.22385229	-4.253183	9.61439967	6.22716652	-19.39371343	17.78986963	44.43004022	0	34.32
0.13	-17.62464584	-6.185437	-5.37470715	-4.2733302	9.53691598	6.27608037	-19.23049304	17.76557369	44.6056421	0	34.32
0.14	-17.58096827	-6.12246729	-5.28454787	-4.23598627	9.58686792	6.23404976	-19.30116575	17.70337736	44.91997257	0	34.32
0.15	-17.53739384	-6.46663841	-5.37627174	-4.378028	9.14226729	6.45001861	-18.15509061	18.9460871	32.82162289	0	34.32
0.16	-17.64956335	-6.37727154	-5.50597984	-4.35820061	9.30020759	6.40377993	-18.53542737	18.71018334	34.32545077	0	34.32
0.17	-17.6476473	-6.15469084	-5.40308193	-4.2600414	9.57079823	6.26211667	-19.33192317	17.68897619	44.96964509	0	34.32
0.18	-17.66634307	-5.98444013	-5.38765971	-4.17174383	9.72577087	6.17094915	-18.22467793	18.43087119	36.62066956	0	34.32
0.19	-17.59076069	-6.33540456	-5.36450497	-4.34687589	9.38823764	6.35640081	-18.78465934	18.42632799	37.3652044	0	34.32
0.2	-17.63800307	-6.3800439	-5.38029781	-4.41348328	9.49527995	6.35519732	-18.71533663	18.41573851	36.87926519	0	34.32
0.21	-17.5691613	-6.26795085	-5.35606086	-4.28556908	9.35967904	6.33596166	-18.62582405	18.59759695	37.51822275	0	34.32
0.22	-17.67030459	-6.26809293	-5.48519309	-4.31534722	9.4480788	6.33460441	-18.63449278	18.34152269	37.32074648	0	34.32
0.23	-17.27746284	-6.30919751	-4.9252591	-4.2571358	9.19617769	6.32955045	-18.61108709	18.74273695	36.24964245	0	34.32
0.24	-17.26436487	-6.20836582	-4.89102383	-4.19487084	9.25623983	6.27843327	-17.78502822	19.02446866	33.50808578	0	34.32
0.25	-17.62196588	-6.2664047	-5.32177279	-4.35202294	9.59534836	6.28914824	-18.19078396	18.65288572	34.47499112	0	34.32
0.26	-17.47523408	-6.25896926	-5.23062299	-4.25470713	9.29094836	6.33054018	-18.04693281	18.77794232	34.94600864	0	34.32
0.27	-17.46330858	-6.37507877	-5.14734744	-4.36383731	9.36251329	6.35029431	-18.75693077	18.67532293	35.85597838	0	34.32
0.28	-17.48930498	-6.38413517	-5.19285716	-4.37125789	9.35901965	6.35973772	-18.27602853	18.80987931	35.01563914	0	34.32
0.29	-17.35592034	-6.42532245	-4.92870851	-4.40767622	9.40057253	6.33560965	-18.5829619	18.73844401	35.8369654	0	34.32
0.3	-17.3660868	-6.40175813	-4.95280377	-4.38921146	9.39807487	6.33079975	-18.55385924	18.70223468	35.86848369	0	34.32
0.31	-17.40863686	-6.30358948	-5.03716675	-4.32043491	9.41660991	6.30097932	-18.73618735	18.46585949	38.22444691	0	34.32
0.32	-17.40408284	-6.31870334	-5.02292479	-4.33364689	9.42288583	6.30425273	-18.72360666	18.45666957	38.23678008	0	34.32
0.33	-17.4979618	-6.39558391	-5.15062397	-4.40871421	9.46114595	6.3405437	-18.698033	18.42255343	38.09221355	0	34.32
0.34	-17.56079272	-6.1915119	-5.2395669	-4.28601792	9.57814383	6.25549457	-19.31890891	17.68189286	45.04160509	0	34.32
0.35	-17.57395448	-6.22968266	-5.32262113	-4.28165246	9.45196781	6.301195	-18.45695746	18.08708529	41.17994255	0	34.32
0.36	-17.57286301	-6.22689207	-5.31994911	-4.28009117	9.45462301	6.29977621	-18.54252693	18.10988926	41.26418085	0	34.32
0.37	-17.56876929	-6.24095815	-5.325757	-4.28265607	9.42513104	6.31088161	-18.2700334	18.28699366	39.06605077	0	34.32
0.38	-17.6035635	-6.19180459	-5.35332645	-4.26856537	9.50578855	6.28152971	-18.71825187	17.80105764	43.78169299	0	34.32
0.39	-17.62204658	-6.27376903	-5.40034617	-4.31689063	9.44690826	6.32741491	-18.60742157	17.89988322	42.01016216	0	34.32
0.4	-17.54026232	-6.33799892	-5.32008507	-4.32350888	9.30573582	6.36700448	-18.32121785	18.24607009	38.8141597	0	34.32
0.41	-17.53547438	-6.41587915	-5.31926605	-4.37156897	9.26187857	6.40336158	-18.05475652	18.41595817	37.97359559	0	34.32
0.42	-17.39401545	-6.35425968	-5.10213096	-4.3072789	9.22913397	6.3611407	-18.37723709	18.66883012	36.67696678	0	34.32
0.43	-17.33811093	-6.4058526	-4.93000518	-4.37714951	9.34803195	6.33848876	-18.37392854	18.63247616	36.55050326	0	34.32
0.44	-17.25156399	-6.35684856	-4.85007183	-4.30308565	9.23367639	6.33113891	-18.51174455	18.72973722	36.3830034	0	34.32
0.45	-16.99833072	-6.17711641	-4.44651924	-4.14933467	9.22897873	6.21719461	-18.14179147	18.9068799	34.68825779	0	34.32
0.46	-17.26562513	-6.11112725	-4.70577824	-4.22570175	9.6414921	6.15242898	-19.18474326	18.11116012	41.23418508	0	34.32
0.47	-17.28560051	-6.11333634	-4.73214479	-4.23257698	9.65639302	6.15342388	-19.17044413	18.07780125	41.24412206	0	34.32
0.48	-17.22877046	-5.92459609	-4.65657847	-4.09143505	9.68517729	6.0717288	-17.71497401	18.51525911	37.5607474	0	34.32
0.49	-17.32957509	-5.93343482	-4.93173367	-4.05247561	9.49961461	6.14156423	-17.06117308	18.6380975	34.96934271	0	34.32
0.5	-17.37768379	-6.17829749	-4.94108688	-4.25648132	9.54287432	6.22207756	-17.55624553	18.6490003	35.30327473	0	34.32
0.51	-16.90593547	-6.16720828	-4.18363978	-4.18983751	9.42091057	6.14692809	-18.30004437	19.09097289	31.46844178	0	34.32
0.52	-17.37098706	-6.35693158	-4.93205988	-4.37439792	9.46959268	6.29922669	-18.71094616	18.73283676	32.99716384	0	34.32
0.53	-17.47980905	-6.13100567	-5.00473033	-4.28843708	9.77323399	6.17159786	-19.49770616	17.67227898	44.10308905	0	34.32
0.54	-17.46864111	-6.14101263	-4.9864394	-4.29405168	9.76745899	6.17359759	-19.41177746	17.71693428	43.9727359	0	34.32
0.55	-17.56360253	-5.97075558	-5.25926047	-4.13120433	9.63636956	6.16759288	-17.99702785	18.32799643	39.23242751	0	34.32
0.56	-17.48003442	-6.21093874	-5.06421939	-4.31210841	9.63376032	6.2320896	-18.20368808	18.19193348	39.33403459	0	34.32
0.57	-17.38577661	-6.31424455	-4.94564833	-4.35283377	9.50858886	6.27806793	-18.62659108	18.32310073	38.56083759	0	34.32
0.58	-17.41550304	-6.27657332	-5.03390279	-4.3106301	9.45571055	6.28430297	-18.46975229	18.38944105	37.85550381	0	34.32
0.59	-17.43287975	-6.34372197	-4.9868852	-4.39600521	9.57360823	6.28229881	-18.95088836	18.27573376	38.05245756	0	34.32
0.6	-17.34932097	-6.0735666	-4.76091496	-4.25116819	9.82424151	6.11241218	-19.47712126	17.77495263	42.20053208	0	34.32
0.61	-17.30597164	-6.24527031	-4.74860698	-4.33166657	9.64130589	6.20584907	-19.38321748	18.02948135	41.52555606	0	34.32
0.62	-17.1975466	-6.35431584	-4.52932059	-4.41404669	9.65438309	6.21691138	-18.61384101	18.30634102	39.67241541	0	34.32
0.63	-17.19161917	-6.3049851	-4.54362123	-4.36826368	9.6278273	6.20534482	-18.6336586	18.30127784	39.68019943	0	34.32
0.64	-17.08185464	-6.05211669	-4.38232509	-4.17766308	9.66745458	6.08695365	-19.12672486	18.26973069	39.77612355	0	34.32
0.65	-17.05038664	-5.92292129	-4.40235697	-4.0513556	9.57772462	6.05940349	-18.57044786	18.55114824	37.80755894	0	34.32
0.66	-17.06050582	-5.94005119	-4.40141631	-4.07297652	9.60621707	6.06019871	-18.55539068	18.43003436	37.83524937	0	34.32
0.67	-17.03438378	-6.03450836	-4.28030692	-4.17300726	9.70895933	6.06038768	-18.78696744	18.38989079	37.89685166	0	34.32
0.68	-17.04137887	-6.0101106	-4.29796465	-4.15434756	9.70851566	6.05417786	-18.77934879	18.38071168	37.91105548	0	34.32
0.69	-17.27518986	-5.85822842	-4.63156162	-4.10347016	9.9070805	6.00567402	-19.05969869	18.06561716	40.03109076	0	34.32
0.7	-17.27310961	-5.88540042	-4.64244745	-4.11404009	9.86952736	6.02294012	-19.32570664	17.98695875	40.53951669	0	34.32
0.71	-17.27849815	-5.8555692	-4.63693467	-4.10195664	9.90857981	6.00466825	-19.34445964	17.73305604	43.6809644	0	34.32
0.72	-17.26426238	-5.87096037	-4.68055084	-4.07684131	9.77638085	6.03917968	-18.78945073	18.1248927	40.84249464	0	34.32
0.73	-17.2534352	-6.00091788	-4.84633406	-4.06884377	9.38400584	6.1756939	-18.43118199	18.64371606	37.19818612	0	34.32
0.74	-17.40203245	-6.06339305	-4.89878835	-4.22385553	9.74352034	6.13923523	-18.41593112	18.50524285	36.21020556	0	34.32
